<svg width="380" height="540" viewBox="0 0 380 540" fill="none" xmlns="http://www.w3.org/2000/svg">
<g clip-path="url(#clip0_559_604)">
<rect x="2" width="378" height="540" rx="16" fill="#424242"/>
<path d="M380 0H2V540H380V0Z" fill="#0A093F"/>
<mask id="mask0_559_604" style="mask-type:luminance" maskUnits="userSpaceOnUse" x="2" y="0" width="378" height="540">
<path d="M380 0H2V540H380V0Z" fill="white"/>
</mask>
<g mask="url(#mask0_559_604)">
<path d="M327.371 252.776C283.924 278.517 341.313 323.463 356.259 348.795C389.087 404.43 344.017 463.219 284.752 445.844C220.775 427.087 255.154 392.057 264.344 363.564C277.476 317.141 220.172 300.253 167.675 313.848C98.6757 331.718 84.0772 380.971 40.7455 359.866C2.66755 340.874 3.1852 301.397 1.87305 270.799V442.817C1.87305 442.817 30.1877 468.379 63.7163 435.466C109.412 390.617 183.482 419.619 137.251 459.65C92.3939 498.492 89.722 535.505 107.046 554.007H405.199V261.596C395.652 241.298 365.329 230.29 327.371 252.776Z" fill="#002052"/>
<path d="M348.258 368.911C349.831 352.058 331.715 344.68 331.602 364.059C331.474 386.618 346.065 392.398 348.258 368.911Z" fill="#002052"/>
</g>
<mask id="mask1_559_604" style="mask-type:luminance" maskUnits="userSpaceOnUse" x="2" y="0" width="378" height="530">
<path d="M380 0H2V529.551H380V0Z" fill="white"/>
</mask>
<g mask="url(#mask1_559_604)">
<path d="M98.7456 128.513C117.575 104.556 76.7778 104.556 68.9326 96.9894C56.3777 83.1199 73.6391 70.5103 90.9004 62.945C109.729 55.3796 139.543 52.8588 159.941 56.6408C186.617 60.4241 202.309 80.5976 227.414 84.381C293.319 95.7294 247.814 37.727 247.814 18.8129C247.814 8.97956 259.99 0.326055 274.3 -3.89129L-3.25 -3.95148V168.863C-0.11155 123.469 79.9163 152.47 98.7456 128.513Z" fill="#002052"/>
<path d="M120.045 70.4289C116.092 64.8387 75.7285 73.1899 78.0984 85.4501C80.4686 97.7093 128.044 81.7469 120.045 70.4289Z" fill="#002052"/>
</g>
<g opacity="0.5">
<path d="M73.4512 492.296C74.5233 488.627 71.6914 484.954 67.1258 484.093C62.5603 483.231 57.99 485.507 56.9178 489.176C55.8457 492.845 58.6777 496.518 63.2433 497.379C67.8088 498.241 72.3791 495.965 73.4512 492.296Z" fill="#F9D987"/>
<path d="M59.6023 493.77C60.1802 493.44 60.7125 493.061 61.2928 492.734C62.0789 492.291 62.9452 491.948 63.8272 491.644C65.2398 491.157 66.7024 490.765 68.1952 490.472C69.6288 490.191 71.1054 489.997 72.4459 489.502C72.7816 489.377 73.1099 489.23 73.4189 489.061C72.9993 487.716 72.0865 486.532 70.8394 485.637C69.703 486.601 68.6883 487.684 67.365 488.479C64.3518 490.288 60.2848 490.321 56.7383 491.343C56.8674 492.491 57.349 493.555 58.0966 494.468C58.6213 494.268 59.1295 494.04 59.6023 493.77Z" fill="#FCBE4F"/>
<path d="M56.9675 489.85C59.8666 488.795 62.9571 488.62 65.8551 487.558C66.3157 487.389 66.7861 487.187 67.1249 486.799C67.4637 486.412 67.6338 485.792 67.4035 485.315C67.198 484.891 66.7392 484.694 66.3076 484.661C64.7704 484.543 63.5363 485.986 62.1125 486.643C61.1378 487.093 60.0633 487.171 59.0119 487.274C58.6654 487.308 58.2195 487.355 57.7512 487.434C57.2332 488.189 56.8912 489.032 56.7617 489.927C56.8331 489.9 56.9101 489.871 56.9675 489.85Z" fill="#FCBE4F"/>
<path d="M73.682 490.699C72.3492 490.991 70.7976 491.71 70.4921 491.797C68.5149 492.361 66.2592 492.59 64.8445 493.949C64.7622 494.029 64.681 494.114 64.6471 494.22C64.5907 494.395 64.6733 494.588 64.7885 494.743C65.2095 495.313 66.0317 495.545 66.7656 495.485C67.4992 495.424 68.1695 495.123 68.8208 494.827C70.1487 494.223 71.4766 493.619 72.8049 493.015C72.9046 492.97 73.0733 492.906 73.2641 492.835C73.5336 492.17 73.6837 491.461 73.6837 490.723C73.6834 490.715 73.682 490.707 73.682 490.699Z" fill="#FCBE4F"/>
<path opacity="0.5" d="M69.9401 485.064C70.6912 486.082 71.1301 487.266 71.1301 488.535C71.1301 492.304 67.328 495.359 62.6384 495.359C60.8796 495.359 59.2458 494.93 57.8906 494.194C59.3697 496.199 62.0819 497.547 65.1923 497.547C69.8823 497.547 73.6844 494.491 73.6844 490.723C73.684 488.367 72.199 486.291 69.9401 485.064Z" fill="#BBB299"/>
</g>
<path d="M268.642 524.005C267.993 524.144 267.326 523.833 267.154 523.311C266.982 522.789 267.369 522.254 268.018 522.115C268.667 521.977 269.334 522.288 269.506 522.81C269.678 523.332 269.291 523.867 268.642 524.005Z" fill="white"/>
<path d="M305.613 481.138C304.964 481.277 304.298 480.966 304.125 480.444C303.953 479.923 304.339 479.387 304.989 479.249C305.638 479.11 306.304 479.421 306.477 479.943C306.649 480.465 306.262 481 305.613 481.138Z" fill="white"/>
<path d="M342.888 493.157C342.239 493.295 341.573 492.984 341.4 492.462C341.228 491.941 341.615 491.405 342.264 491.267C342.913 491.128 343.579 491.439 343.752 491.961C343.925 492.483 343.537 493.018 342.888 493.157Z" fill="white"/>
<path d="M339.919 457.088C339.27 457.226 338.604 456.915 338.432 456.393C338.259 455.872 338.646 455.336 339.295 455.198C339.945 455.059 340.611 455.37 340.783 455.892C340.955 456.414 340.569 456.949 339.919 457.088Z" fill="white"/>
<path d="M305.153 480.117L267.764 523.47L268.029 523.618L305.419 480.264L305.153 480.117Z" fill="white"/>
<path d="M305.374 480.054L305.254 480.295L343.09 492.495L343.211 492.254L305.374 480.054Z" fill="white"/>
<path d="M339.783 456.107L339.461 456.128L342.983 492.424L343.305 492.404L339.783 456.107Z" fill="white"/>
<path d="M293.121 128.334C293.121 127.794 293.666 127.356 294.338 127.356C295.01 127.356 295.554 127.794 295.554 128.334C295.554 128.874 295.01 129.311 294.338 129.311C293.666 129.311 293.121 128.874 293.121 128.334Z" fill="white"/>
<path d="M329.662 116.415C329.662 115.875 330.207 115.437 330.879 115.437C331.55 115.437 332.095 115.875 332.095 116.415C332.095 116.954 331.551 117.392 330.879 117.392C330.207 117.392 329.662 116.955 329.662 116.415Z" fill="white"/>
<path d="M315.207 99.0774C315.207 98.5374 315.752 98.0998 316.424 98.0998C317.095 98.0998 317.64 98.5374 317.64 99.0774C317.64 99.6171 317.096 100.055 316.424 100.055C315.752 100.055 315.207 99.6171 315.207 99.0774Z" fill="white"/>
<path d="M352.016 105.358C352.016 104.818 352.56 104.38 353.232 104.38C353.904 104.38 354.449 104.818 354.449 105.358C354.449 105.898 353.904 106.336 353.232 106.336C352.56 106.336 352.016 105.898 352.016 105.358Z" fill="white"/>
<path d="M316.277 99.0173L294.551 127.769L294.827 127.904L316.554 99.152L316.277 99.0173Z" fill="white"/>
<path d="M330.746 116.486L316.293 99.1453L316.562 99.0013L331.015 116.343L330.746 116.486Z" fill="white"/>
<path d="M353.25 105.206L330.773 116.307L330.942 116.528L353.419 105.427L353.25 105.206Z" fill="white"/>
<path d="M24.2607 23.6101C24.9306 23.5698 25.5144 23.9737 25.5644 24.512C25.6145 25.0503 25.1119 25.5195 24.442 25.5597C23.7721 25.5999 23.1883 25.196 23.1382 24.6577C23.0882 24.1194 23.5908 23.6503 24.2607 23.6101Z" fill="white"/>
<path d="M41.7724 52.0057C42.4423 51.9655 43.0261 52.3693 43.0761 52.9079C43.1262 53.4463 42.6236 53.9154 41.9537 53.9556C41.2838 53.9958 40.7 53.5919 40.6499 53.0536C40.5999 52.5148 41.1025 52.0459 41.7724 52.0057Z" fill="white"/>
<path d="M62.2099 39.1312C62.8798 39.091 63.4636 39.4949 63.5136 40.0332C63.5637 40.5715 63.0611 41.0406 62.3912 41.0809C61.7213 41.1211 61.1375 40.7172 61.0874 40.1789C61.0374 39.6406 61.54 39.1715 62.2099 39.1312Z" fill="white"/>
<path d="M57.1572 69.0949C57.8271 69.0546 58.4109 69.4585 58.4609 69.9968C58.511 70.5351 58.0084 71.0043 57.3385 71.0445C56.6686 71.0847 56.0848 70.6808 56.0347 70.1425C55.9843 69.6039 56.4869 69.1351 57.1572 69.0949Z" fill="white"/>
<path d="M25.0722 24.7351L24.9258 24.9662L62.2333 40.225L62.3797 39.9939L25.0722 24.7351Z" fill="white"/>
<path d="M62.2017 40.0027L41.7637 52.8801L41.963 53.0844L62.401 40.207L62.2017 40.0027Z" fill="white"/>
<path d="M41.9897 52.9046L41.7285 53.0565L57.1924 70.2341L57.4536 70.0823L41.9897 52.9046Z" fill="white"/>
<path d="M44.8456 268.036L44.5234 268.056L46.6359 290.848L46.958 290.828L44.8456 268.036Z" fill="white"/>
<path d="M66.4607 266.832L44.6816 267.916L44.7016 268.175L66.4807 267.092L66.4607 266.832Z" fill="white"/>
<path d="M66.6139 266.925L66.2949 266.968L73.4168 301.091L73.7358 301.048L66.6139 266.925Z" fill="white"/>
<path d="M46.8672 290.731L46.7285 290.965L73.5091 301.198L73.6478 300.963L46.8672 290.731Z" fill="white"/>
<path d="M73.4376 301.05L67.5215 333.085L67.841 333.123L73.7571 301.088L73.4376 301.05Z" fill="white"/>
<path d="M67.7776 332.998L67.5957 333.213L118.416 361.03L118.597 360.816L67.7776 332.998Z" fill="white"/>
<path d="M118.243 360.977C118.532 360.49 119.257 360.282 119.864 360.514C120.471 360.746 120.729 361.329 120.44 361.817C120.152 362.304 119.426 362.512 118.819 362.28C118.213 362.048 117.955 361.465 118.243 360.977Z" fill="white"/>
<path d="M66.5693 332.69C66.8577 332.202 67.5836 331.995 68.1901 332.227C68.797 332.458 69.055 333.042 68.7662 333.529C68.4778 334.017 67.7519 334.224 67.1454 333.992C66.5388 333.76 66.2809 333.177 66.5693 332.69Z" fill="white"/>
<path d="M72.3759 300.132C72.6643 299.644 73.3902 299.437 73.9971 299.669C74.6037 299.9 74.862 300.484 74.5732 300.971C74.2848 301.459 73.5589 301.666 72.9524 301.434C72.3455 301.203 72.0875 300.62 72.3759 300.132Z" fill="white"/>
<path d="M43.585 267.632C43.8734 267.144 44.5993 266.937 45.2059 267.168C45.8128 267.4 46.0707 267.983 45.7823 268.471C45.4939 268.959 44.768 269.166 44.1615 268.934C43.5546 268.702 43.2963 268.119 43.585 267.632Z" fill="white"/>
<path d="M45.704 290.424C45.9924 289.936 46.7183 289.729 47.3252 289.961C47.9321 290.193 48.1901 290.776 47.9013 291.264C47.6129 291.751 46.887 291.959 46.2805 291.727C45.6736 291.495 45.4156 290.912 45.704 290.424Z" fill="white"/>
<path d="M65.3622 266.532C65.6506 266.044 66.3765 265.837 66.9831 266.069C67.59 266.301 67.8479 266.884 67.5595 267.371C67.2711 267.859 66.5452 268.066 65.9383 267.835C65.3318 267.603 65.0738 267.02 65.3622 266.532Z" fill="white"/>
<path d="M150.224 22.1171C150.899 22.1171 150.901 21.2733 150.224 21.2733C149.548 21.2733 149.547 22.1171 150.224 22.1171Z" fill="white"/>
<path d="M114.812 24.1678C115.487 24.1678 115.489 23.324 114.812 23.324C114.136 23.324 114.135 24.1678 114.812 24.1678Z" fill="white"/>
<path d="M124.701 12.8876C125.376 12.8876 125.377 12.0438 124.701 12.0438C124.025 12.0438 124.024 12.8876 124.701 12.8876Z" fill="white"/>
<path d="M203.822 31.4206C205.849 31.4206 205.853 28.8893 203.822 28.8893C201.795 28.8893 201.792 31.4206 203.822 31.4206Z" fill="white"/>
<path d="M221.687 14.2441C223.714 14.2441 223.718 11.7128 221.687 11.7128C219.66 11.7128 219.657 14.2441 221.687 14.2441Z" fill="white"/>
<path d="M340.369 65.7741C342.396 65.7741 342.399 63.2429 340.369 63.2429C338.342 63.2429 338.339 65.7741 340.369 65.7741Z" fill="white"/>
<path d="M299.851 68.594C301.878 68.594 301.882 66.0627 299.851 66.0627C297.825 66.0627 297.821 68.594 299.851 68.594Z" fill="white"/>
<path d="M279.752 35.7788C281.779 35.7788 281.782 33.2476 279.752 33.2476C277.725 33.2476 277.722 35.7788 279.752 35.7788Z" fill="white"/>
<path d="M35.3709 114.228C37.3978 114.228 37.4013 111.696 35.3709 111.696C33.3441 111.696 33.3409 114.228 35.3709 114.228Z" fill="white"/>
<path d="M41.1139 99.4493C42.4653 99.4493 42.4674 97.7618 41.1139 97.7618C39.7626 97.7618 39.7605 99.4493 41.1139 99.4493Z" fill="white"/>
<path d="M21.6531 93.5528C23.0045 93.5528 23.0066 91.8653 21.6531 91.8653C20.3018 91.8653 20.2993 93.5528 21.6531 93.5528Z" fill="white"/>
<path d="M146.716 28.9481C148.067 28.9481 148.069 27.2606 146.716 27.2606C145.364 27.2606 145.362 28.9481 146.716 28.9481Z" fill="white"/>
<path d="M354.087 54.5847C355.438 54.5847 355.44 52.8972 354.087 52.8972C352.735 52.8972 352.733 54.5847 354.087 54.5847Z" fill="white"/>
<path d="M284.856 48.6882C286.207 48.6882 286.209 47.0007 284.856 47.0007C283.505 47.0007 283.503 48.6882 284.856 48.6882Z" fill="white"/>
<path d="M28.9897 150.301C29.6652 150.301 29.6666 149.457 28.9897 149.457C28.3139 149.457 28.3128 150.301 28.9897 150.301Z" fill="white"/>
<path d="M32.179 161.581C32.8545 161.581 32.8559 160.737 32.179 160.737C31.5035 160.737 31.5021 161.581 32.179 161.581Z" fill="white"/>
<path d="M41.4328 153.89C42.1083 153.89 42.1097 153.046 41.4328 153.046C40.7573 153.046 40.7563 153.89 41.4328 153.89Z" fill="white"/>
<path d="M169.046 69.8013C169.722 69.8013 169.723 68.9576 169.046 68.9576C168.37 68.9576 168.369 69.8013 169.046 69.8013Z" fill="white"/>
<path d="M154.689 84.4146C155.364 84.4146 155.366 83.5708 154.689 83.5708C154.013 83.5708 154.012 84.4146 154.689 84.4146Z" fill="white"/>
<path d="M180.851 79.2872C181.526 79.2872 181.527 78.4434 180.851 78.4434C180.175 78.4434 180.174 79.2872 180.851 79.2872Z" fill="white"/>
<path d="M368.124 89.7979C368.8 89.7979 368.801 88.9542 368.124 88.9542C367.449 88.9542 367.447 89.7979 368.124 89.7979Z" fill="white"/>
<path d="M358.234 89.0288C358.909 89.0288 358.91 88.1851 358.234 88.1851C357.558 88.1851 357.557 89.0288 358.234 89.0288Z" fill="white"/>
<path d="M360.789 71.5959C361.464 71.5959 361.465 70.7522 360.789 70.7522C360.113 70.7522 360.112 71.5959 360.789 71.5959Z" fill="white"/>
<path d="M242.743 48.7792C243.419 48.7792 243.42 47.9355 242.743 47.9355C242.068 47.9355 242.067 48.7792 242.743 48.7792Z" fill="white"/>
<path d="M236.681 65.1868C237.356 65.1868 237.358 64.3431 236.681 64.3431C236.005 64.3431 236.004 65.1868 236.681 65.1868Z" fill="white"/>
<path d="M269.542 266.948C270.218 266.948 270.219 266.104 269.542 266.104C268.867 266.104 268.866 266.948 269.542 266.948Z" fill="white"/>
<path d="M266.673 275.409C267.349 275.409 267.35 274.565 266.673 274.565C265.998 274.565 265.996 275.409 266.673 275.409Z" fill="white"/>
<path d="M295.384 281.817C296.06 281.817 296.061 280.974 295.384 280.974C294.709 280.974 294.707 281.817 295.384 281.817Z" fill="white"/>
<path d="M325.054 237.21C325.729 237.21 325.731 236.366 325.054 236.366C324.378 236.366 324.377 237.21 325.054 237.21Z" fill="white"/>
<path d="M335.902 232.339C336.577 232.339 336.578 231.495 335.902 231.495C335.226 231.495 335.225 232.339 335.902 232.339Z" fill="white"/>
<path d="M211.796 316.171C212.472 316.171 212.473 315.327 211.796 315.327C211.12 315.327 211.119 316.171 211.796 316.171Z" fill="white"/>
<path d="M197.759 330.015C198.434 330.015 198.436 329.171 197.759 329.171C197.083 329.171 197.082 330.015 197.759 330.015Z" fill="white"/>
<path d="M219.455 337.193C220.13 337.193 220.131 336.35 219.455 336.35C218.779 336.35 218.778 337.193 219.455 337.193Z" fill="white"/>
<path d="M225.833 325.4C226.509 325.4 226.51 324.556 225.833 324.556C225.158 324.556 225.157 325.4 225.833 325.4Z" fill="white"/>
<path d="M32.179 337.449C32.8545 337.449 32.8559 336.606 32.179 336.606C31.5035 336.606 31.5021 337.449 32.179 337.449Z" fill="white"/>
<path d="M20.3762 356.421C21.0517 356.421 21.0531 355.577 20.3762 355.577C19.7007 355.577 19.6996 356.421 20.3762 356.421Z" fill="white"/>
<path d="M33.4562 367.701C34.1317 367.701 34.1331 366.857 33.4562 366.857C32.7807 366.857 32.7797 367.701 33.4562 367.701Z" fill="white"/>
<path d="M33.4562 353.088C34.1317 353.088 34.1331 352.244 33.4562 352.244C32.7807 352.244 32.7797 353.088 33.4562 353.088Z" fill="white"/>
<path d="M124.701 328.22C125.376 328.22 125.377 327.376 124.701 327.376C124.025 327.376 124.024 328.22 124.701 328.22Z" fill="white"/>
<path d="M119.597 349.243C120.272 349.243 120.274 348.399 119.597 348.399C118.921 348.399 118.92 349.243 119.597 349.243Z" fill="white"/>
<path d="M140.654 347.96C141.329 347.96 141.33 347.117 140.654 347.117C139.978 347.117 139.977 347.96 140.654 347.96Z" fill="white"/>
<path d="M99.1782 372.481C100.53 372.481 100.532 370.794 99.1782 370.794C97.8272 370.794 97.8248 372.481 99.1782 372.481Z" fill="white"/>
<path d="M63.7664 363.252C65.1177 363.252 65.1198 361.564 63.7664 361.564C62.415 361.564 62.4126 363.252 63.7664 363.252Z" fill="white"/>
<path d="M37.6041 414.269C38.9555 414.269 38.9576 412.581 37.6041 412.581C36.2528 412.581 36.2507 414.269 37.6041 414.269Z" fill="white"/>
<path d="M27.3952 404.783C28.7465 404.783 28.7486 403.096 27.3952 403.096C26.0438 403.096 26.0417 404.783 27.3952 404.783Z" fill="white"/>
<path d="M231.579 411.705C232.93 411.705 232.932 410.018 231.579 410.018C230.227 410.018 230.225 411.705 231.579 411.705Z" fill="white"/>
<path d="M234.13 399.912C235.481 399.912 235.483 398.225 234.13 398.225C232.778 398.225 232.776 399.912 234.13 399.912Z" fill="white"/>
<path d="M348.663 409.142C350.014 409.142 350.016 407.454 348.663 407.454C347.312 407.454 347.309 409.142 348.663 409.142Z" fill="white"/>
<path d="M331.434 402.476C332.786 402.476 332.788 400.789 331.434 400.789C330.083 400.789 330.081 402.476 331.434 402.476Z" fill="white"/>
<path d="M325.055 382.479C326.407 382.479 326.409 380.792 325.055 380.792C323.704 380.792 323.702 382.479 325.055 382.479Z" fill="white"/>
<path d="M295.704 466.312C297.055 466.312 297.057 464.624 295.704 464.624C294.353 464.624 294.35 466.312 295.704 466.312Z" fill="white"/>
<path d="M283.262 483.489C284.614 483.489 284.616 481.801 283.262 481.801C281.911 481.801 281.909 483.489 283.262 483.489Z" fill="white"/>
</g>
<defs>
<clipPath id="clip0_559_604">
<rect x="2" width="378" height="540" rx="16" fill="white"/>
</clipPath>
</defs>
</svg>
