<svg width="61" height="61" viewBox="0 0 61 61" fill="none" xmlns="http://www.w3.org/2000/svg">
<path d="M52.594 40.0715V20.0358C52.5931 19.1574 52.3613 18.2947 51.9217 17.5343C51.4821 16.7738 50.8503 16.1423 50.0896 15.7031L32.5583 5.68523C31.7969 5.2456 30.9331 5.01416 30.0538 5.01416C29.1746 5.01416 28.3108 5.2456 27.5494 5.68523L10.0181 15.7031C9.25744 16.1423 8.6256 16.7738 8.18602 17.5343C7.74644 18.2947 7.51457 19.1574 7.51367 20.0358V40.0715C7.51457 40.9499 7.74644 41.8126 8.18602 42.5731C8.6256 43.3336 9.25744 43.9651 10.0181 44.4042L27.5494 54.4221C28.3108 54.8617 29.1746 55.0932 30.0538 55.0932C30.9331 55.0932 31.7969 54.8617 32.5583 54.4221L50.0896 44.4042C50.8503 43.9651 51.4821 43.3336 51.9217 42.5731C52.3613 41.8126 52.5931 40.9499 52.594 40.0715Z" stroke="white" stroke-width="5.00893" stroke-linecap="round" stroke-linejoin="round"/>
<path d="M18.7832 10.5439L30.0533 17.0556L41.3234 10.5439" stroke="white" stroke-width="5.00893" stroke-linecap="round" stroke-linejoin="round"/>
<path d="M18.7838 49.5635V36.5653L7.51367 30.0537" stroke="white" stroke-width="5.00893" stroke-linecap="round" stroke-linejoin="round"/>
<path d="M52.5943 30.0537L41.3242 36.5653V49.5635" stroke="white" stroke-width="5.00893" stroke-linecap="round" stroke-linejoin="round"/>
<path d="M8.18848 17.4312L30.0524 30.0787L51.9164 17.4312" stroke="white" stroke-width="5.00893" stroke-linecap="round" stroke-linejoin="round"/>
<path d="M30.0537 55.2987V30.0537" stroke="white" stroke-width="5.00893" stroke-linecap="round" stroke-linejoin="round"/>
</svg>
