<svg width="893" height="1117" viewBox="0 0 893 1117" fill="none" xmlns="http://www.w3.org/2000/svg">
<g clip-path="url(#clip0_649_1397)">
<rect width="893" height="1117" fill="white"/>
<path d="M40.8879 513.341L40.2129 513.382L44.639 561.373L45.3139 561.332L40.8879 513.341Z" fill="black"/>
<path d="M86.1772 510.807L40.5449 513.088L40.5868 513.635L86.2191 511.353L86.1772 510.807Z" fill="black"/>
<path d="M86.4983 511.002L85.8301 511.093L100.752 582.941L101.42 582.851L86.4983 511.002Z" fill="black"/>
<path d="M45.1227 561.127L44.832 561.62L100.944 583.165L101.234 582.671L45.1227 561.127Z" fill="black"/>
<path d="M100.794 582.855L88.3984 650.305L89.068 650.386L101.464 582.935L100.794 582.855Z" fill="black"/>
<path d="M88.9338 650.123L88.5527 650.575L195.032 709.147L195.413 708.695L88.9338 650.123Z" fill="black"/>
<path d="M194.675 709.034C195.279 708.008 196.8 707.571 198.071 708.06C199.343 708.548 199.883 709.776 199.279 710.802C198.675 711.829 197.154 712.265 195.882 711.777C194.611 711.289 194.071 710.061 194.675 709.034Z" fill="black"/>
<path d="M86.4037 649.473C87.008 648.446 88.5289 648.01 89.7998 648.498C91.0714 648.986 91.6118 650.214 91.0068 651.24C90.4026 652.267 88.8816 652.704 87.6108 652.216C86.3399 651.728 85.7994 650.5 86.4037 649.473Z" fill="black"/>
<path d="M98.5697 580.921C99.174 579.894 100.695 579.458 101.967 579.946C103.237 580.434 103.779 581.662 103.174 582.688C102.569 583.715 101.048 584.151 99.7775 583.663C98.5059 583.176 97.9654 581.948 98.5697 580.921Z" fill="black"/>
<path d="M38.2478 512.49C38.852 511.463 40.373 511.027 41.6438 511.515C42.9154 512.003 43.4559 513.231 42.8516 514.257C42.2474 515.284 40.7264 515.721 39.4556 515.232C38.184 514.745 37.6428 513.517 38.2478 512.49Z" fill="black"/>
<path d="M42.6869 560.481C43.2912 559.454 44.8121 559.018 46.0837 559.506C47.3553 559.994 47.8958 561.223 47.2908 562.249C46.6865 563.276 45.1656 563.712 43.8947 563.224C42.6231 562.736 42.0826 561.508 42.6869 560.481Z" fill="black"/>
<path d="M83.8764 510.175C84.4806 509.148 86.0016 508.712 87.2724 509.2C88.544 509.688 89.0845 510.916 88.4802 511.943C87.876 512.969 86.355 513.406 85.0834 512.918C83.8126 512.429 83.2721 511.202 83.8764 510.175Z" fill="black"/>
<path d="M221.696 279.011C262.808 228.55 173.732 228.55 156.603 212.613C129.191 183.399 166.879 156.84 204.567 140.905C245.678 124.97 310.772 119.66 355.31 127.626C413.554 135.595 447.816 178.087 502.63 186.056C646.527 209.959 547.172 87.7877 547.172 47.9488C547.172 27.2368 573.755 9.00981 605 0.126773L-1 0V364C5.85247 268.388 180.585 329.471 221.696 279.011Z" fill="#002052"/>
<path d="M265.098 158.732C256.816 146.961 172.245 164.545 177.21 190.36C182.176 216.172 281.858 182.562 265.098 158.732Z" fill="#002052"/>
<path d="M659.203 1083.95C657.843 1084.24 656.447 1083.58 656.086 1082.48C655.725 1081.39 656.535 1080.26 657.896 1079.97C659.256 1079.68 660.652 1080.33 661.013 1081.43C661.374 1082.53 660.564 1083.65 659.203 1083.95Z" fill="black"/>
<path d="M736.664 993.689C735.304 993.981 733.908 993.326 733.547 992.227C733.186 991.129 733.996 990.001 735.357 989.71C736.718 989.418 738.113 990.072 738.474 991.171C738.835 992.27 738.025 993.397 736.664 993.689Z" fill="black"/>
<path d="M814.766 1018.99C813.405 1019.28 812.009 1018.63 811.648 1017.53C811.288 1016.43 812.097 1015.31 813.458 1015.01C814.819 1014.72 816.214 1015.38 816.576 1016.48C816.937 1017.58 816.126 1018.7 814.766 1018.99Z" fill="black"/>
<path d="M808.545 943.048C807.184 943.34 805.788 942.686 805.428 941.587C805.067 940.488 805.876 939.361 807.238 939.069C808.598 938.778 809.993 939.432 810.355 940.531C810.716 941.63 809.905 942.757 808.545 943.048Z" fill="black"/>
<path d="M735.706 991.537L657.365 1082.82L657.922 1083.13L736.262 991.848L735.706 991.537Z" fill="black"/>
<path d="M736.168 991.406L735.916 991.913L815.192 1017.6L815.444 1017.09L736.168 991.406Z" fill="black"/>
<path d="M808.261 940.984L807.586 941.026L814.977 1017.45L815.652 1017.41L808.261 940.984Z" fill="black"/>
<path d="M712 137.658C712 136.522 713.141 135.601 714.549 135.601C715.957 135.601 717.098 136.522 717.098 137.658C717.098 138.795 715.957 139.717 714.549 139.717C713.141 139.717 712 138.795 712 137.658Z" fill="black"/>
<path d="M788.564 112.563C788.564 111.426 789.706 110.504 791.114 110.504C792.521 110.504 793.663 111.426 793.663 112.563C793.663 113.699 792.522 114.621 791.114 114.621C789.706 114.621 788.564 113.7 788.564 112.563Z" fill="black"/>
<path d="M758.275 76.0585C758.275 74.9215 759.416 74 760.824 74C762.232 74 763.373 74.9215 763.373 76.0585C763.373 77.1949 762.232 78.1169 760.824 78.1169C759.416 78.1163 758.275 77.1949 758.275 76.0585Z" fill="black"/>
<path d="M835.398 89.2826C835.398 88.1462 836.54 87.2242 837.948 87.2242C839.355 87.2242 840.497 88.1456 840.497 89.2826C840.497 90.4196 839.356 91.3411 837.948 91.3411C836.54 91.3411 835.398 90.4196 835.398 89.2826Z" fill="black"/>
<path d="M760.515 75.932L714.992 136.47L715.571 136.754L761.093 76.2156L760.515 75.932Z" fill="black"/>
<path d="M790.832 112.714L760.549 76.2012L761.112 75.898L791.394 112.411L790.832 112.714Z" fill="black"/>
<path d="M837.983 88.9618L790.889 112.336L791.243 112.801L838.337 89.4269L837.983 88.9618Z" fill="black"/>
<path d="M609 473.658C609 472.522 610.141 471.601 611.549 471.601C612.957 471.601 614.098 472.522 614.098 473.658C614.098 474.795 612.957 475.717 611.549 475.717C610.141 475.717 609 474.795 609 473.658Z" fill="black"/>
<path d="M685.564 448.563C685.564 447.426 686.706 446.504 688.114 446.504C689.521 446.504 690.663 447.426 690.663 448.563C690.663 449.699 689.522 450.621 688.114 450.621C686.706 450.621 685.564 449.7 685.564 448.563Z" fill="black"/>
<path d="M655.275 412.058C655.275 410.921 656.416 410 657.824 410C659.232 410 660.373 410.921 660.373 412.058C660.373 413.195 659.232 414.117 657.824 414.117C656.416 414.116 655.275 413.195 655.275 412.058Z" fill="black"/>
<path d="M732.398 425.283C732.398 424.146 733.54 423.224 734.948 423.224C736.355 423.224 737.497 424.146 737.497 425.283C737.497 426.42 736.356 427.341 734.948 427.341C733.54 427.341 732.398 426.42 732.398 425.283Z" fill="black"/>
<path d="M657.515 411.932L611.992 472.47L612.571 472.754L658.093 412.216L657.515 411.932Z" fill="black"/>
<path d="M687.832 448.714L657.549 412.201L658.112 411.898L688.394 448.411L687.832 448.714Z" fill="black"/>
<path d="M734.983 424.962L687.889 448.336L688.243 448.801L735.337 425.427L734.983 424.962Z" fill="black"/>
<path d="M96.359 960.006C97.7626 959.921 98.9858 960.772 99.0907 961.905C99.1955 963.038 98.1425 964.026 96.7389 964.111C95.3353 964.196 94.1121 963.345 94.0072 962.212C93.9023 961.078 94.9554 960.09 96.359 960.006Z" fill="black"/>
<path d="M133.048 1019.79C134.452 1019.71 135.675 1020.56 135.78 1021.69C135.885 1022.83 134.832 1023.82 133.428 1023.9C132.025 1023.98 130.802 1023.13 130.697 1022C130.592 1020.87 131.645 1019.88 133.048 1019.79Z" fill="black"/>
<path d="M175.873 992.686C177.276 992.601 178.499 993.451 178.604 994.585C178.709 995.718 177.656 996.706 176.253 996.791C174.849 996.875 173.626 996.025 173.521 994.892C173.416 993.758 174.469 992.77 175.873 992.686Z" fill="black"/>
<path d="M165.283 1055.78C166.687 1055.69 167.91 1056.54 168.015 1057.68C168.119 1058.81 167.066 1059.8 165.663 1059.88C164.259 1059.97 163.036 1059.12 162.931 1057.98C162.826 1056.85 163.879 1055.86 165.283 1055.78Z" fill="black"/>
<path d="M98.0586 962.374L97.752 962.86L175.92 994.989L176.227 994.502L98.0586 962.374Z" fill="black"/>
<path d="M175.85 994.521L133.027 1021.64L133.445 1022.07L176.267 994.951L175.85 994.521Z" fill="black"/>
<path d="M133.506 1021.69L132.959 1022.01L165.36 1058.17L165.907 1057.86L133.506 1021.69Z" fill="black"/>
</g>
<defs>
<clipPath id="clip0_649_1397">
<rect width="893" height="1117" fill="white"/>
</clipPath>
</defs>
</svg>
