<svg width="222" height="241" viewBox="0 0 222 241" fill="none" xmlns="http://www.w3.org/2000/svg">
<path d="M101.999 0.645707L105.905 10.4211L109.811 20.8074L101.999 28.1389L101.999 0.645707Z" fill="#0077BB"/>
<path d="M72.2495 9.9425L85.9212 22.1617L79.4109 29.4933L72.2495 9.9425Z" fill="#002F5F"/>
<path d="M86.5721 21.9946L78.7598 48.8769L79.4108 28.5659L86.5721 21.9946Z" fill="url(#paint0_linear_133_2)"/>
<path d="M86.5722 21.9946V62.318L79.4109 48.8769L86.5722 21.9946Z" fill="url(#paint1_linear_133_2)"/>
<path d="M124.332 21.9946L131.493 62.318H109.358L124.332 21.9946Z" fill="#002F60"/>
<path d="M124.332 21.3837L109.359 62.318L101.546 54.9865L124.332 21.3837Z" fill="url(#paint2_linear_133_2)"/>
<path d="M110.009 62.9291H131.493L116.52 96.5319L110.009 62.9291Z" fill="url(#paint3_linear_133_2)"/>
<path d="M132.144 63.5399L146.467 90.4222L117.822 97.1428L132.144 63.5399Z" fill="#003061"/>
<path d="M131.493 117.915L146.467 91.0332L117.171 97.7538L131.493 117.915Z" fill="url(#paint4_linear_133_2)"/>
<path d="M101.546 91.6442L117.171 97.7538L94.3845 125.247L101.546 91.6442Z" fill="url(#paint5_linear_133_2)"/>
<path d="M101.546 91.0332L94.5 125L87 112L101.546 91.0332Z" fill="#0078BA"/>
<path d="M117.171 97.7537L130.842 118.526L116.52 131.967L94.3845 125.247L117.171 97.7537Z" fill="#006EAD"/>
<path d="M131.494 119.137L146.467 139.91L131.494 160.683L116.52 147.242V132.579L131.494 119.137Z" fill="url(#paint6_linear_133_2)"/>
<path d="M146.467 91.0332L154.28 119.137L147.118 139.299L131.493 119.137L146.467 91.0332Z" fill="#013061"/>
<path d="M94.3845 126.469L116.52 131.968V147.853L94.3845 174.124V126.469Z" fill="url(#paint7_linear_133_2)"/>
<path d="M116.52 147.853L131.493 160.683L94.3845 175.346L116.52 147.853Z" fill="url(#paint8_linear_133_2)"/>
<path d="M41 132.578L71.5985 146.631L94.3846 174.735L64.4371 160.683L41 132.578Z" fill="#00AAD9"/>
<path d="M42.1337 91.0332L49.4633 98.3647L56.6246 111.806L41.6509 132.579L42.1337 91.0332Z" fill="#00AFDA"/>
<path d="M56.6247 70.2605L49.4634 97.7537L42.302 90.4222L56.6247 70.2605Z" fill="url(#paint9_linear_133_2)"/>
<path d="M56.6247 70.8715L64.4371 90.4222L49.4634 97.1428L56.6247 70.8715Z" fill="url(#paint10_linear_133_2)"/>
<path d="M49.4634 98.3647L63.7861 91.0332L56.6247 111.195L49.4634 98.3647Z" fill="url(#paint11_linear_133_2)"/>
<path d="M64.4371 91.6442L86.5722 111.806H56.6248L64.4371 91.6442Z" fill="url(#paint12_linear_133_2)"/>
<path d="M94.1167 127.08L94.1167 174.124L72.2495 146.63L94.1167 127.08Z" fill="url(#paint13_linear_133_2)"/>
<path d="M86.5722 112.417L94.3845 126.469L71.5984 146.631L42.302 132.578L86.5722 112.417Z" fill="#0178B8"/>
<path d="M57.0608 111.806L86.5 112L42.302 132.578L57.0608 111.806Z" fill="url(#paint14_linear_133_2)"/>
<path d="M101.546 56.2084L109.359 62.9289L116.52 97.7537L101.546 91.0331V56.2084Z" fill="url(#paint15_linear_133_2)"/>
<path d="M87.2231 78.2029L97.5 96L93.7335 101.419L87.2231 97.1427V78.2029Z" fill="#013365"/>
<path d="M86.5723 77.5922V98.9758L79.4109 104.474L76.1558 101.42L86.5723 77.5922Z" fill="url(#paint16_linear_133_2)"/>
<path d="M78.7596 83.7018L86.572 77.5922L76.1555 101.42L74.2024 99.5868L78.7596 83.7018Z" fill="url(#paint17_linear_133_2)"/>
<path d="M72 64L86.2505 77.4601L78.7505 83.4601L72 64Z" fill="#01AAD8"/>
<path d="M68.3435 43.3782V56.8193L61.1821 62.9289L68.3435 43.3782Z" fill="#013263"/>
<path d="M87.2233 97.7537L93 102L86.5722 111.195L79.4109 104.474L87.2233 97.7537Z" fill="url(#paint18_linear_133_2)"/>
<path d="M114.5 217C114.5 234.229 55.8728 178.081 37.2103 178.081C18.5479 178.081 20.1007 212.765 20.1007 195.536C20.1007 178.307 18.5479 160.255 37.2104 160.255C55.8729 160.255 114.5 199.771 114.5 217Z" fill="url(#paint19_linear_133_2)"/>
<path d="M222 181.568C222 203.663 193 236 161 239C129 242 84.6952 207.24 74 190C74 167.905 134.933 222.448 166 219C197.404 219 222 159.472 222 181.568Z" fill="url(#paint20_linear_133_2)"/>
<path d="M85.5 186.5C85.5 201.777 58.8802 223.761 40.9437 223.761C23.0072 223.761 10.271 211.376 10.271 196.099C10.271 180.821 25.5125 209.862 43.449 209.862C61.3856 209.862 94.5 172 85.5 186.5Z" fill="url(#paint21_linear_133_2)"/>
<path d="M22.7276 190.337C22.7276 204.079 45.7942 220.79 32.8432 220.79C19.8922 220.79 0 204.079 0 190.337C0 176.595 19.8922 159.884 32.8432 159.884C45.7942 159.884 22.7276 176.595 22.7276 190.337Z" fill="url(#paint22_linear_133_2)"/>
<path d="M222.001 182.909C222.001 203.42 188.568 237.5 164 237.5C139.432 237.5 198.5 211.011 198.5 190.5C198.5 169.989 152.52 148 177.088 148C201.656 148 222.001 162.399 222.001 182.909Z" fill="url(#paint23_linear_133_2)"/>
<path d="M221.147 183.395C221.147 207.597 206.582 164 170.674 164C134.221 164 55.0001 264.5 70.1559 235.016C70.1559 210.814 134.767 148.857 170.674 148.857C206.582 148.857 221.147 159.192 221.147 183.395Z" fill="url(#paint24_linear_133_2)"/>
<defs>
<linearGradient id="paint0_linear_133_2" x1="82.666" y1="21.9946" x2="82.666" y2="48.8769" gradientUnits="userSpaceOnUse">
<stop stop-color="#0064A3"/>
<stop offset="1" stop-color="#0064A3" stop-opacity="0"/>
</linearGradient>
<linearGradient id="paint1_linear_133_2" x1="82.9916" y1="21.9946" x2="82.9916" y2="62.318" gradientUnits="userSpaceOnUse">
<stop stop-color="#01ABDA"/>
<stop offset="1" stop-color="#01ABDA" stop-opacity="0"/>
</linearGradient>
<linearGradient id="paint2_linear_133_2" x1="112.939" y1="21.3837" x2="112.939" y2="62.318" gradientUnits="userSpaceOnUse">
<stop stop-color="#003366"/>
<stop offset="1" stop-color="#003366" stop-opacity="0"/>
</linearGradient>
<linearGradient id="paint3_linear_133_2" x1="120.751" y1="62.9291" x2="120.751" y2="96.5319" gradientUnits="userSpaceOnUse">
<stop stop-color="#0068A7"/>
<stop offset="1" stop-color="#0068A7" stop-opacity="0"/>
</linearGradient>
<linearGradient id="paint4_linear_133_2" x1="131.819" y1="91.0332" x2="131.819" y2="117.915" gradientUnits="userSpaceOnUse">
<stop stop-color="#01ACDA"/>
<stop offset="1" stop-color="#01ACDA" stop-opacity="0"/>
</linearGradient>
<linearGradient id="paint5_linear_133_2" x1="105.778" y1="91.6442" x2="105.778" y2="125.247" gradientUnits="userSpaceOnUse">
<stop stop-color="#00A9D9"/>
<stop offset="1" stop-color="#0067A6" stop-opacity="0"/>
</linearGradient>
<linearGradient id="paint6_linear_133_2" x1="131.494" y1="119.137" x2="131.494" y2="160.683" gradientUnits="userSpaceOnUse">
<stop stop-color="#006FAF"/>
<stop offset="1" stop-color="#006FAF" stop-opacity="0"/>
</linearGradient>
<linearGradient id="paint7_linear_133_2" x1="105.452" y1="126.469" x2="105.452" y2="174.124" gradientUnits="userSpaceOnUse">
<stop stop-color="#00A7D7"/>
<stop offset="1" stop-color="#00A7D7" stop-opacity="0"/>
</linearGradient>
<linearGradient id="paint8_linear_133_2" x1="112.939" y1="147.853" x2="112.939" y2="175.346" gradientUnits="userSpaceOnUse">
<stop stop-color="#006DAD"/>
<stop offset="1" stop-color="#006DAD" stop-opacity="0"/>
</linearGradient>
<linearGradient id="paint9_linear_133_2" x1="49.4634" y1="70.2605" x2="49.4634" y2="97.7537" gradientUnits="userSpaceOnUse">
<stop stop-color="#01A6D7"/>
<stop offset="1" stop-color="#01A6D7" stop-opacity="0"/>
</linearGradient>
<linearGradient id="paint10_linear_133_2" x1="56.9502" y1="70.8715" x2="56.9502" y2="97.1428" gradientUnits="userSpaceOnUse">
<stop offset="0.366319" stop-color="#003364"/>
<stop offset="1" stop-color="#003364" stop-opacity="0"/>
</linearGradient>
<linearGradient id="paint11_linear_133_2" x1="56.6247" y1="91.0332" x2="56.6247" y2="111.195" gradientUnits="userSpaceOnUse">
<stop stop-color="#0070B3"/>
<stop offset="1" stop-color="#0070B3" stop-opacity="0"/>
</linearGradient>
<linearGradient id="paint12_linear_133_2" x1="71.5985" y1="91.6442" x2="71.5985" y2="111.806" gradientUnits="userSpaceOnUse">
<stop stop-color="#003265"/>
<stop offset="1" stop-color="#003265" stop-opacity="0"/>
</linearGradient>
<linearGradient id="paint13_linear_133_2" x1="83.1831" y1="127.08" x2="83.1831" y2="174.124" gradientUnits="userSpaceOnUse">
<stop stop-color="#0168A4"/>
<stop offset="1" stop-color="#0168A4" stop-opacity="0"/>
</linearGradient>
<linearGradient id="paint14_linear_133_2" x1="64.7626" y1="111.806" x2="64.7626" y2="132.578" gradientUnits="userSpaceOnUse">
<stop stop-color="#0069A9"/>
<stop offset="1" stop-color="#0069A9" stop-opacity="0"/>
</linearGradient>
<linearGradient id="paint15_linear_133_2" x1="109.033" y1="56.2084" x2="109.033" y2="97.7537" gradientUnits="userSpaceOnUse">
<stop stop-color="#01BFEA"/>
<stop offset="1" stop-color="#01BFEA" stop-opacity="0"/>
</linearGradient>
<linearGradient id="paint16_linear_133_2" x1="81.364" y1="77.5922" x2="81.364" y2="104.474" gradientUnits="userSpaceOnUse">
<stop stop-color="#0173B5"/>
<stop offset="1" stop-color="#0173B5" stop-opacity="0"/>
</linearGradient>
<linearGradient id="paint17_linear_133_2" x1="80.3872" y1="77.5922" x2="80.3872" y2="101.42" gradientUnits="userSpaceOnUse">
<stop stop-color="#02ACDD"/>
<stop offset="1" stop-color="#02ACDD" stop-opacity="0"/>
</linearGradient>
<linearGradient id="paint18_linear_133_2" x1="86.2467" y1="97.7537" x2="86.2467" y2="111.195" gradientUnits="userSpaceOnUse">
<stop stop-color="#013467"/>
<stop offset="1" stop-color="#013467" stop-opacity="0"/>
</linearGradient>
<linearGradient id="paint19_linear_133_2" x1="85" y1="170" x2="-8.49999" y2="170" gradientUnits="userSpaceOnUse">
<stop stop-color="#046EAE"/>
<stop offset="1" stop-color="#046EAE" stop-opacity="0"/>
</linearGradient>
<linearGradient id="paint20_linear_133_2" x1="224" y1="190" x2="72" y2="185.5" gradientUnits="userSpaceOnUse">
<stop stop-color="#5E9BBF" stop-opacity="0"/>
<stop offset="0.712068" stop-color="#0D73B1"/>
</linearGradient>
<linearGradient id="paint21_linear_133_2" x1="99" y1="198" x2="-17.5" y2="189" gradientUnits="userSpaceOnUse">
<stop offset="0.330458" stop-color="#222020"/>
<stop offset="0.577498" stop-color="#36393C" stop-opacity="0.769097"/>
<stop offset="1" stop-color="#42484D" stop-opacity="0"/>
</linearGradient>
<linearGradient id="paint22_linear_133_2" x1="18.3951" y1="159.884" x2="18.3951" y2="220.79" gradientUnits="userSpaceOnUse">
<stop stop-color="#006CAD"/>
<stop offset="0.14745" stop-color="#006CAD" stop-opacity="0.685764"/>
<stop offset="0.548611" stop-color="#006CAD" stop-opacity="0.451389"/>
<stop offset="0.756944" stop-color="#006CAD" stop-opacity="0.243056"/>
<stop offset="0.855903" stop-color="#006CAD" stop-opacity="0.144097"/>
<stop offset="1" stop-color="#006CAD" stop-opacity="0"/>
</linearGradient>
<linearGradient id="paint23_linear_133_2" x1="189.753" y1="148" x2="189.753" y2="237.5" gradientUnits="userSpaceOnUse">
<stop offset="0.645312" stop-color="#559DC8"/>
<stop offset="1" stop-color="#559DC8" stop-opacity="0"/>
</linearGradient>
<linearGradient id="paint24_linear_133_2" x1="65" y1="195" x2="191" y2="137.5" gradientUnits="userSpaceOnUse">
<stop stop-color="#1F1C1C"/>
<stop offset="0.771412" stop-color="#42484D"/>
<stop offset="1" stop-color="#292B2D" stop-opacity="0.40775"/>
</linearGradient>
</defs>
</svg>
