<svg width="55" height="55" viewBox="0 0 55 55" fill="none" xmlns="http://www.w3.org/2000/svg">
<g clip-path="url(#clip0_471_2176)">
<path d="M49.0652 26.5374L28.4402 5.91242C27.6152 5.08742 26.4694 4.58325 25.209 4.58325H9.16732C6.64648 4.58325 4.58398 6.64575 4.58398 9.16658V25.2083C4.58398 26.4687 5.08815 27.6145 5.93607 28.4624L26.5611 49.0874C27.3861 49.9124 28.5319 50.4166 29.7923 50.4166C31.0527 50.4166 32.1986 49.9124 33.0236 49.0645L49.0652 33.0228C49.9131 32.1978 50.4173 31.052 50.4173 29.7916C50.4173 28.5312 49.8902 27.3624 49.0652 26.5374ZM12.6048 16.0416C10.7027 16.0416 9.16732 14.5062 9.16732 12.6041C9.16732 10.702 10.7027 9.16658 12.6048 9.16658C14.5069 9.16658 16.0423 10.702 16.0423 12.6041C16.0423 14.5062 14.5069 16.0416 12.6048 16.0416ZM39.5777 34.9937L29.7923 44.7791L20.0069 34.9937C18.9756 33.9395 18.334 32.5187 18.334 30.9374C18.334 27.7749 20.9007 25.2083 24.0632 25.2083C25.6444 25.2083 27.0882 25.8499 28.1194 26.9041L29.7923 28.5541L31.4652 26.8812C32.4965 25.8499 33.9402 25.2083 35.5215 25.2083C38.684 25.2083 41.2506 27.7749 41.2506 30.9374C41.2506 32.5187 40.609 33.9624 39.5777 34.9937Z" fill="white"/>
</g>
<defs>
<clipPath id="clip0_471_2176">
<rect width="55" height="55" fill="white"/>
</clipPath>
</defs>
</svg>
